<svg width="32" height="32" viewBox="0 0 32 32" fill="none" xmlns="http://www.w3.org/2000/svg">
<path fill-rule="evenodd" clip-rule="evenodd" d="M22.72 16.1591C22.72 15.6627 22.6755 15.1855 22.5927 14.7273H16V17.435H19.7673C19.605 18.31 19.1118 19.0514 18.3705 19.5477V21.3041H20.6327C21.9564 20.0855 22.72 18.2909 22.72 16.1591Z" fill="#4285F4"/>
<path fill-rule="evenodd" clip-rule="evenodd" d="M16 23C17.89 23 19.4746 22.3732 20.6328 21.3041L18.3705 19.5477C17.7437 19.9677 16.9418 20.2159 16 20.2159C14.1768 20.2159 12.6337 18.9845 12.0832 17.33H9.74457V19.1436C10.8964 21.4314 13.2637 23 16 23Z" fill="#34A853"/>
<path fill-rule="evenodd" clip-rule="evenodd" d="M12.0832 17.33C11.9432 16.91 11.8636 16.4614 11.8636 16C11.8636 15.5386 11.9432 15.09 12.0832 14.67V12.8564H9.74455C9.27046 13.8014 9 14.8705 9 16C9 17.1296 9.27046 18.1986 9.74455 19.1436L12.0832 17.33Z" fill="#FBBC05"/>
<path fill-rule="evenodd" clip-rule="evenodd" d="M16 11.7841C17.0278 11.7841 17.9505 12.1373 18.6759 12.8309L20.6837 10.8232C19.4714 9.69364 17.8868 9 16 9C13.2637 9 10.8964 10.5686 9.74457 12.8564L12.0832 14.67C12.6337 13.0155 14.1768 11.7841 16 11.7841Z" fill="#EA4335"/>
</svg>
