<svg width="16" height="16" viewBox="0 0 16 16" fill="none" xmlns="http://www.w3.org/2000/svg">
<path d="M1.33334 5.33334H8.66668M14.6667 5.33334H12.6667" stroke="#0E0E2C" stroke-linecap="round" stroke-linejoin="round"/>
<path d="M14.6667 10.6667H7.33334M1.33334 10.6667H3.33334" stroke="#0E0E2C" stroke-linecap="round" stroke-linejoin="round"/>
<path d="M10.6667 7.33334C11.7712 7.33334 12.6667 6.43791 12.6667 5.33334C12.6667 4.22877 11.7712 3.33334 10.6667 3.33334C9.56209 3.33334 8.66666 4.22877 8.66666 5.33334C8.66666 6.43791 9.56209 7.33334 10.6667 7.33334Z" stroke="#0E0E2C" stroke-linecap="round" stroke-linejoin="round"/>
<path d="M5.33334 12.6667C4.22877 12.6667 3.33334 11.7712 3.33334 10.6667C3.33334 9.56209 4.22877 8.66666 5.33334 8.66666C6.43791 8.66666 7.33334 9.56209 7.33334 10.6667C7.33334 11.7712 6.43791 12.6667 5.33334 12.6667Z" stroke="#0E0E2C" stroke-linecap="round" stroke-linejoin="round"/>
</svg>
