<svg width="28" height="25" viewBox="0 0 28 25" fill="none" xmlns="http://www.w3.org/2000/svg">
<path d="M20.7377 3.78475C19.7064 3.78475 18.9706 4.23415 18.2919 5.2104L16.3354 8.01993V0H11.6681V8.01993L9.71156 5.2104C9.03389 4.23415 8.29813 3.78475 7.26584 3.78475C5.70873 3.78475 4.67235 4.93424 4.66726 6.35072C4.66318 7.56339 5.23487 8.35417 6.4404 9.13069L14.0018 14.0017L21.5631 9.13069C22.7686 8.35417 23.3403 7.56339 23.3362 6.35072C23.3322 4.93424 22.2948 3.78475 20.7377 3.78475Z" fill="#7CD546"/>
<path d="M14 10.3944C21.703 10.3944 28.0174 16.1446 28 24.3961H2.92983e-05C-0.0156912 16.1481 6.29697 10.3944 14 10.3944Z" fill="#FF7009"/>
</svg>
