<svg width="16" height="16" viewBox="0 0 16 16" fill="none" xmlns="http://www.w3.org/2000/svg">
<path d="M7.51197 2.83537C7.66558 2.36259 8.33444 2.36259 8.48805 2.83537L9.4586 5.82238C9.52729 6.03381 9.72433 6.17696 9.94664 6.17696H13.0873C13.5845 6.17696 13.7911 6.81308 13.389 7.10527L10.8481 8.95133C10.6682 9.082 10.593 9.31362 10.6617 9.52505L11.6322 12.5121C11.7858 12.9848 11.2447 13.378 10.8425 13.0858L8.30163 11.2397C8.12178 11.1091 7.87824 11.1091 7.69838 11.2397L5.15748 13.0858C4.75531 13.378 4.2142 12.9848 4.36782 12.5121L5.33835 9.52506C5.40705 9.31363 5.33179 9.082 5.15194 8.95133L2.61105 7.10527C2.20888 6.81308 2.41557 6.17696 2.91268 6.17696H6.05339C6.2757 6.17696 6.47273 6.03381 6.54143 5.82238L7.51197 2.83537Z" fill="#7CD546"/>
</svg>
